<svg width="62" height="62" viewBox="0 0 62 62" fill="none" xmlns="http://www.w3.org/2000/svg">
  <path d="M25.89 24.75C26.48 24.75 27.01 24.97 27.44 25.32V20.78H15.52C14.54 20.78 13.75 21.57 13.75 22.54V34.45H18.73C18.38 34.88 18.16 35.41 18.16 36C18.16 37.34 19.25 38.43 20.59 38.43C21.93 38.43 23.02 37.34 23.02 36C23.02 35.41 22.8 34.88 22.45 34.45H27.43V29.03C27.01 29.38 26.48 29.6 25.88 29.6C24.54 29.6 23.45 28.51 23.45 27.17C23.46 25.84 24.55 24.75 25.89 24.75Z" stroke="#333333" stroke-width="1.5" stroke-miterlimit="10" stroke-linecap="round" stroke-linejoin="round" />
  <path d="M50.5 17.63L40.77 10.75L37.88 14.84C37.88 14.07 37.53 13.32 36.86 12.84C35.77 12.07 34.25 12.33 33.48 13.42C32.71 14.51 32.97 16.03 34.06 16.8C34.73 17.28 35.56 17.36 36.28 17.1L32.88 21.91L37.33 25.06C37.07 24.34 37.15 23.51 37.63 22.84C38.4 21.75 39.92 21.49 41.01 22.26C42.1 23.03 42.36 24.55 41.59 25.64C41.12 26.31 40.36 26.66 39.6 26.66L44.05 29.81L50.93 20.09C51.49 19.29 51.3 18.19 50.5 17.63Z" stroke="#3366FF" stroke-width="1.5" stroke-miterlimit="10" stroke-linecap="round" stroke-linejoin="round" />
  <path d="M36.57 34.23C36.92 33.81 37.14 33.28 37.14 32.69C37.14 31.35 36.05 30.26 34.71 30.26C33.37 30.26 32.28 31.35 32.28 32.69C32.28 33.28 32.5 33.81 32.85 34.23H27.87V39.65C28.29 39.3 28.82 39.08 29.41 39.08C30.75 39.08 31.84 40.17 31.84 41.51C31.84 42.85 30.75 43.94 29.41 43.94C28.82 43.94 28.29 43.72 27.87 43.37V47.91H39.79C40.77 47.91 41.56 47.12 41.56 46.15V34.23H36.57Z" stroke="#333333" stroke-width="1.5" stroke-miterlimit="10" stroke-linecap="round" stroke-linejoin="round" />
  <path d="M29.42 39.09C28.6 39.09 27.87 39.5 27.43 40.13V34.24H21.98C22.61 34.68 23.02 35.4 23.02 36.22C23.02 37.56 21.93 38.65 20.59 38.65C19.25 38.65 18.16 37.56 18.16 36.22C18.16 35.4 18.57 34.67 19.2 34.24H13.75V46.15C13.75 47.12 14.54 47.91 15.52 47.91H27.44V42.9C27.88 43.53 28.6 43.94 29.43 43.94C30.77 43.94 31.86 42.85 31.86 41.51C31.86 40.17 30.76 39.09 29.42 39.09Z" stroke="#333333" stroke-width="1.5" stroke-miterlimit="10" stroke-linecap="round" stroke-linejoin="round" />
</svg>