<?xml version="1.0" encoding="utf-8"?>
<!-- Generator: Adobe Illustrator 25.1.0, SVG Export Plug-In . SVG Version: 6.00 Build 0)  -->
<svg version="1.1" id="Layer_1" xmlns="http://www.w3.org/2000/svg" xmlns:xlink="http://www.w3.org/1999/xlink" x="0px" y="0px"
	 viewBox="0 0 20 20" style="enable-background:new 0 0 20 20;" xml:space="preserve">
<style type="text/css">
	.st0{fill:#979da4;}
	.st1{filter:url(#Adobe_OpacityMaskFilter);}
	.st2{fill-rule:evenodd;clip-rule:evenodd;fill:#FFFFFF;}
	.st3{mask:url(#mask-2_1_);}
</style>
<g id="_x2D_icon">
	<g id="Group" transform="translate(0.000060, 0.000000)">
		<g transform="translate(1.111051, 1.111111)">
			<g id="Stroke-1">
				<path id="path-1_1_" class="st0" d="M6.7,0c3.7,0,6.7,3,6.7,6.7c0,0.7-0.1,1.4-0.3,2c-0.1,0.4-0.6,0.7-1,0.5s-0.7-0.6-0.5-1
					c0.2-0.5,0.2-1,0.2-1.5c0-2.8-2.2-5-5-5s-5,2.2-5,5c0,2.8,2.2,5,5,5c1.3,0,2.6-0.5,3.6-1.5c0.3-0.3,0.8-0.3,1.1-0.1l0.1,0.1
					l6.1,6.1c0.3,0.3,0.3,0.9,0,1.2c-0.3,0.3-0.8,0.3-1.1,0.1l-0.1-0.1l-5.6-5.6L10.7,12c-1.1,0.8-2.4,1.3-3.7,1.3l-0.3,0
					C3,13.3,0,10.3,0,6.7C0,3,3,0,6.7,0z"/>
			</g>
			<defs>
				<filter id="Adobe_OpacityMaskFilter" filterUnits="userSpaceOnUse">
					<feColorMatrix  type="matrix" values="1 0 0 0 0  0 1 0 0 0  0 0 1 0 0  0 0 0 1 0"/>
				</filter>
			</defs>
			<mask maskUnits="userSpaceOnUse" id="mask-2_1_">
				<g class="st1">
					<path id="path-1_2_" class="st2" d="M6.7,0c3.7,0,6.7,3,6.7,6.7c0,0.7-0.1,1.4-0.3,2c-0.1,0.4-0.6,0.7-1,0.5s-0.7-0.6-0.5-1
						c0.2-0.5,0.2-1,0.2-1.5c0-2.8-2.2-5-5-5s-5,2.2-5,5c0,2.8,2.2,5,5,5c1.3,0,2.6-0.5,3.6-1.5c0.3-0.3,0.8-0.3,1.1-0.1l0.1,0.1
						l6.1,6.1c0.3,0.3,0.3,0.9,0,1.2c-0.3,0.3-0.8,0.3-1.1,0.1l-0.1-0.1l-5.6-5.6L10.7,12c-1.1,0.8-2.4,1.3-3.7,1.3l-0.3,0
						C3,13.3,0,10.3,0,6.7C0,3,3,0,6.7,0z"/>
				</g>
			</mask>
			<g id="Color_x2F_Neutral_x2F_Bluegray500" class="st3">
			</g>
		</g>
	</g>
</g>
</svg>
