<svg width="62" height="62" viewBox="0 0 62 62" fill="none" xmlns="http://www.w3.org/2000/svg">
  <path d="M25 23.25C31.2132 23.25 36.25 21.3472 36.25 19C36.25 16.6528 31.2132 14.75 25 14.75C18.7868 14.75 13.75 16.6528 13.75 19C13.75 21.3472 18.7868 23.25 25 23.25Z" stroke="#333333" stroke-width="1.5" stroke-miterlimit="10" stroke-linecap="round" stroke-linejoin="round" />
  <path d="M27.55 29.14C27.33 29.16 27.11 29.18 26.89 29.19C26.27 29.23 25.64 29.25 25 29.25C18.79 29.25 13.75 27.35 13.75 25" stroke="#333333" stroke-width="1.5" stroke-miterlimit="10" stroke-linecap="round" stroke-linejoin="round" />
  <path d="M25.73 35.24C25.49 35.25 25.25 35.25 25 35.25C18.79 35.25 13.75 33.35 13.75 31" stroke="#333333" stroke-width="1.5" stroke-miterlimit="10" stroke-linecap="round" stroke-linejoin="round" />
  <path d="M26.56 41.21C26.05 41.24 25.53 41.25 25 41.25C18.79 41.25 13.75 39.35 13.75 37" stroke="#333333" stroke-width="1.5" stroke-miterlimit="10" stroke-linecap="round" stroke-linejoin="round" />
  <path d="M13.75 18.84V37.04" stroke="#333333" stroke-width="1.5" stroke-miterlimit="10" stroke-linecap="round" stroke-linejoin="round" />
  <path d="M36.25 18.84V22.18" stroke="#333333" stroke-width="1.5" stroke-miterlimit="10" stroke-linecap="round" stroke-linejoin="round" />
  <path d="M41.05 48.14C47.5394 48.14 52.8 42.8794 52.8 36.39C52.8 29.9007 47.5394 24.64 41.05 24.64C34.5607 24.64 29.3 29.9007 29.3 36.39C29.3 42.8794 34.5607 48.14 41.05 48.14Z" stroke="#333333" stroke-width="1.5" stroke-miterlimit="10" stroke-linecap="round" stroke-linejoin="round" />
  <path d="M44.91 30.16L37.78 42.19" stroke="#3366FF" stroke-width="1.5" stroke-miterlimit="10" stroke-linecap="round" stroke-linejoin="round" />
  <path d="M38.14 33.84C39.0568 33.84 39.8 33.0565 39.8 32.09C39.8 31.1235 39.0568 30.34 38.14 30.34C37.2232 30.34 36.48 31.1235 36.48 32.09C36.48 33.0565 37.2232 33.84 38.14 33.84Z" stroke="#3366FF" stroke-width="1.2" stroke-miterlimit="10" stroke-linecap="round" stroke-linejoin="round" />
  <path d="M44.96 41.82C45.8768 41.82 46.62 41.0365 46.62 40.07C46.62 39.1035 45.8768 38.32 44.96 38.32C44.0433 38.32 43.3 39.1035 43.3 40.07C43.3 41.0365 44.0433 41.82 44.96 41.82Z" stroke="#3366FF" stroke-width="1.2" stroke-miterlimit="10" stroke-linecap="round" stroke-linejoin="round" />
</svg>