<svg width="62" height="62" viewBox="0 0 62 62" fill="none" xmlns="http://www.w3.org/2000/svg">
  <path d="M28.7601 23.7996C32.6398 23.7996 35.7849 20.6545 35.7849 16.7748C35.7849 12.8951 32.6398 9.75 28.7601 9.75C24.8805 9.75 21.7354 12.8951 21.7354 16.7748C21.7354 20.6545 24.8805 23.7996 28.7601 23.7996Z" stroke="#333333" stroke-width="1.5" stroke-miterlimit="10" />
  <path d="M24.645 42.8346H19.995C18.2003 42.8346 16.75 41.4568 16.75 39.7527V34.0332C16.75 30.6341 19.6506 27.8785 23.2309 27.8785H35.2773C37.072 27.8785 38.6855 28.5674 39.8638 29.6823" stroke="#333333" stroke-width="1.5" stroke-miterlimit="10" stroke-linecap="round" />
  <path d="M47.1607 47.8199H26.9746L30.6547 36.5439C31.1895 34.8942 32.7848 33.7703 34.5976 33.7703H47.9946C49.8528 33.7703 51.1762 35.4925 50.6232 37.1875L47.1607 47.8199Z" stroke="#333333" stroke-width="1.5" stroke-miterlimit="10" />
  <path d="M38.051 47.8198H16.75" stroke="#333333" stroke-width="1.5" stroke-miterlimit="10" stroke-linecap="round" />
  <path d="M39.6373 43.7409C41.2643 43.7409 42.5832 42.422 42.5832 40.795C42.5832 39.168 41.2643 37.8491 39.6373 37.8491C38.0103 37.8491 36.6914 39.168 36.6914 40.795C36.6914 42.422 38.0103 43.7409 39.6373 43.7409Z" stroke="#3366FF" stroke-width="1.5" stroke-miterlimit="10" stroke-linecap="round" />
</svg>